<?xml version="1.0" encoding="utf-8" standalone="no"?>
<!DOCTYPE svg PUBLIC "-//W3C//DTD SVG 1.1//EN"
  "http://www.w3.org/Graphics/SVG/1.1/DTD/svg11.dtd">
<!-- Created with matplotlib (https://matplotlib.org/) -->
<svg height="290.558099pt" version="1.1" viewBox="0 0 401.447726 290.558099" width="401.447726pt" xmlns="http://www.w3.org/2000/svg" xmlns:xlink="http://www.w3.org/1999/xlink">
 <defs>
  <style type="text/css">
*{stroke-linecap:butt;stroke-linejoin:round;}
  </style>
 </defs>
 <g id="figure_1">
  <g id="patch_1">
   <path d="M 0 290.558099 
L 401.447726 290.558099 
L 401.447726 0 
L 0 0 
z
" style="fill:#ffffff;"/>
  </g>
  <g id="axes_1">
   <g id="patch_2">
    <path d="M 59.447726 239.606376 
L 394.247726 239.606376 
L 394.247726 22.166376 
L 59.447726 22.166376 
z
" style="fill:#ffffff;"/>
   </g>
   <g id="matplotlib.axis_1">
    <g id="xtick_1">
     <g id="line2d_1">
      <defs>
       <path d="M 0 0 
L 0 3.5 
" id="mcef0930d08" style="stroke:#000000;stroke-width:0.8;"/>
      </defs>
      <g>
       <use style="stroke:#000000;stroke-width:0.8;" x="65.222021" xlink:href="#mcef0930d08" y="239.606376"/>
      </g>
     </g>
     <g id="text_1">
      <!-- $0$ -->
      <defs>
       <path d="M 42 31.84375 
C 42 37.96875 41.90625 48.421875 37.703125 56.453125 
C 34 63.484375 28.09375 66 22.90625 66 
C 18.09375 66 12 63.78125 8.203125 56.5625 
C 4.203125 49.015625 3.796875 39.671875 3.796875 31.84375 
C 3.796875 26.109375 3.90625 17.375 7 9.734375 
C 11.296875 -0.609375 19 -2 22.90625 -2 
C 27.5 -2 34.5 -0.109375 38.59375 9.4375 
C 41.59375 16.375 42 24.5 42 31.84375 
z
M 22.90625 -0.40625 
C 16.5 -0.40625 12.703125 5.125 11.296875 12.75 
C 10.203125 18.6875 10.203125 27.328125 10.203125 32.953125 
C 10.203125 40.6875 10.203125 47.109375 11.5 53.234375 
C 13.40625 61.78125 19 64.390625 22.90625 64.390625 
C 27 64.390625 32.296875 61.671875 34.203125 53.4375 
C 35.5 47.71875 35.59375 40.984375 35.59375 32.953125 
C 35.59375 26.421875 35.59375 18.375 34.40625 12.453125 
C 32.296875 1.5 26.40625 -0.40625 22.90625 -0.40625 
z
" id="CMR17-48"/>
      </defs>
      <g transform="translate(62.731353 253.524874)scale(0.1 -0.1)">
       <use transform="scale(0.996264)" xlink:href="#CMR17-48"/>
      </g>
     </g>
    </g>
    <g id="xtick_2">
     <g id="line2d_2">
      <g>
       <use style="stroke:#000000;stroke-width:0.8;" x="127.621924" xlink:href="#mcef0930d08" y="239.606376"/>
      </g>
     </g>
     <g id="text_2">
      <!-- $5$ -->
      <defs>
       <path d="M 11.40625 58.59375 
C 12.40625 58.1875 16.5 56.890625 20.703125 56.890625 
C 30 56.890625 35.09375 61.890625 38 64.6875 
C 38 65.484375 38 66 37.40625 66 
C 37.296875 66 37.09375 66 36.296875 65.59375 
C 32.796875 64.09375 28.703125 63 23.703125 63 
C 20.703125 63 16.203125 63.359375 11.296875 65.484375 
C 10.203125 66 10 66 9.90625 66 
C 9.40625 66 9.296875 65.890625 9.296875 63.90625 
L 9.296875 34.859375 
C 9.296875 33.015625 9.296875 32.5 10.296875 32.5 
C 10.796875 32.5 11 32.703125 11.5 33.421875 
C 14.703125 38.046875 19.09375 40 24.09375 40 
C 27.59375 40 35.09375 37.734375 35.09375 20.203125 
C 35.09375 16.984375 35.09375 11.1875 32.09375 6.59375 
C 29.59375 2.484375 25.703125 0.390625 21.40625 0.390625 
C 14.796875 0.390625 8.09375 4.984375 6.296875 12.6875 
C 6.703125 12.59375 7.5 12.390625 7.90625 12.390625 
C 9.203125 12.390625 11.703125 13.09375 11.703125 16.1875 
C 11.703125 18.890625 9.796875 20 7.90625 20 
C 5.59375 20 4.09375 18.59375 4.09375 15.796875 
C 4.09375 7.09375 11 -2 21.59375 -2 
C 31.90625 -2 41.703125 6.890625 41.703125 19.796875 
C 41.703125 32.09375 33.90625 41.59375 24.203125 41.59375 
C 19.09375 41.59375 14.796875 39.6875 11.40625 36 
z
" id="CMR17-53"/>
      </defs>
      <g transform="translate(125.131256 253.524874)scale(0.1 -0.1)">
       <use transform="scale(0.996264)" xlink:href="#CMR17-53"/>
      </g>
     </g>
    </g>
    <g id="xtick_3">
     <g id="line2d_3">
      <g>
       <use style="stroke:#000000;stroke-width:0.8;" x="190.021826" xlink:href="#mcef0930d08" y="239.606376"/>
      </g>
     </g>
     <g id="text_3">
      <!-- $10$ -->
      <defs>
       <path d="M 26.59375 63.796875 
C 26.59375 65.890625 26.5 66 25.09375 66 
C 21.203125 61.359375 15.296875 59.890625 9.703125 59.6875 
C 9.40625 59.6875 8.90625 59.6875 8.796875 59.5 
C 8.703125 59.296875 8.703125 59.09375 8.703125 57 
C 11.796875 57 17 57.59375 21 59.984375 
L 21 7.296875 
C 21 3.796875 20.796875 2.59375 12.203125 2.59375 
L 9.203125 2.59375 
L 9.203125 0 
C 14 0.09375 19 0.1875 23.796875 0.1875 
C 28.59375 0.1875 33.59375 0.09375 38.40625 0 
L 38.40625 2.59375 
L 35.40625 2.59375 
C 26.796875 2.59375 26.59375 3.6875 26.59375 7.296875 
z
" id="CMR17-49"/>
      </defs>
      <g transform="translate(185.040491 253.524874)scale(0.1 -0.1)">
       <use transform="scale(0.996264)" xlink:href="#CMR17-49"/>
       <use transform="translate(45.690477 0)scale(0.996264)" xlink:href="#CMR17-48"/>
      </g>
     </g>
    </g>
    <g id="xtick_4">
     <g id="line2d_4">
      <g>
       <use style="stroke:#000000;stroke-width:0.8;" x="252.421729" xlink:href="#mcef0930d08" y="239.606376"/>
      </g>
     </g>
     <g id="text_4">
      <!-- $15$ -->
      <g transform="translate(247.440394 253.524874)scale(0.1 -0.1)">
       <use transform="scale(0.996264)" xlink:href="#CMR17-49"/>
       <use transform="translate(45.690477 0)scale(0.996264)" xlink:href="#CMR17-53"/>
      </g>
     </g>
    </g>
    <g id="xtick_5">
     <g id="line2d_5">
      <g>
       <use style="stroke:#000000;stroke-width:0.8;" x="314.821632" xlink:href="#mcef0930d08" y="239.606376"/>
      </g>
     </g>
     <g id="text_5">
      <!-- $20$ -->
      <defs>
       <path d="M 41.703125 15.46875 
L 39.90625 15.46875 
C 38.90625 8.390625 38.09375 7.1875 37.703125 6.59375 
C 37.203125 5.796875 30 5.796875 28.59375 5.796875 
L 9.40625 5.796875 
C 13 9.6875 20 16.765625 28.5 24.9375 
C 34.59375 30.71875 41.703125 37.5 41.703125 47.390625 
C 41.703125 59.1875 32.296875 66 21.796875 66 
C 10.796875 66 4.09375 56.296875 4.09375 47.296875 
C 4.09375 43.390625 7 42.890625 8.203125 42.890625 
C 9.203125 42.890625 12.203125 43.484375 12.203125 46.984375 
C 12.203125 50.09375 9.59375 51 8.203125 51 
C 7.59375 51 7 50.890625 6.59375 50.6875 
C 8.5 59.1875 14.296875 63.390625 20.40625 63.390625 
C 29.09375 63.390625 34.796875 56.5 34.796875 47.390625 
C 34.796875 38.703125 29.703125 31.21875 24 24.734375 
L 4.09375 2.296875 
L 4.09375 0 
L 39.296875 0 
z
" id="CMR17-50"/>
      </defs>
      <g transform="translate(309.840297 253.524874)scale(0.1 -0.1)">
       <use transform="scale(0.996264)" xlink:href="#CMR17-50"/>
       <use transform="translate(45.690477 0)scale(0.996264)" xlink:href="#CMR17-48"/>
      </g>
     </g>
    </g>
    <g id="xtick_6">
     <g id="line2d_6">
      <g>
       <use style="stroke:#000000;stroke-width:0.8;" x="377.221535" xlink:href="#mcef0930d08" y="239.606376"/>
      </g>
     </g>
     <g id="text_6">
      <!-- $25$ -->
      <g transform="translate(372.240199 253.524874)scale(0.1 -0.1)">
       <use transform="scale(0.996264)" xlink:href="#CMR17-50"/>
       <use transform="translate(45.690477 0)scale(0.996264)" xlink:href="#CMR17-53"/>
      </g>
     </g>
    </g>
    <g id="text_7">
     <!-- $\displaystyle \frac{|IP(B)-EA(B)|}{r_p(A)^2}$ \space \space $\displaystyle[eV \cdot \AA^2]$ -->
     <defs>
      <path d="M 15.90625 71.390625 
C 15.90625 73.1875 15.90625 75 13.90625 75 
C 11.90625 75 11.90625 73.1875 11.90625 71.390625 
L 11.90625 -21.40625 
C 11.90625 -23.203125 11.90625 -25 13.90625 -25 
C 15.90625 -25 15.90625 -23.203125 15.90625 -21.40625 
z
" id="CMSY10-106"/>
      <path d="M 36.796875 60.609375 
C 37.703125 64.09375 37.90625 65.09375 45.203125 65.09375 
C 47.40625 65.09375 48.203125 65.09375 48.203125 66.984375 
C 48.203125 68 47.09375 68 46.796875 68 
C 45 68 42.796875 67.796875 41 67.796875 
L 28.703125 67.796875 
C 26.703125 67.796875 24.40625 68 22.40625 68 
C 21.59375 68 20.5 68 20.5 66.09375 
C 20.5 65.09375 21.296875 65.09375 23.296875 65.09375 
C 29.5 65.09375 29.5 64.296875 29.5 63.203125 
C 29.5 62.5 29.296875 61.90625 29.09375 61.015625 
L 15.59375 7.375 
C 14.703125 3.890625 14.5 2.890625 7.203125 2.890625 
C 5 2.890625 4.09375 2.890625 4.09375 1 
C 4.09375 0 5.09375 0 5.59375 0 
C 7.40625 0 9.59375 0.1875 11.40625 0.1875 
L 23.703125 0.1875 
C 25.703125 0.1875 27.90625 0 29.90625 0 
C 30.703125 0 31.90625 0 31.90625 1.796875 
C 31.90625 2.890625 31.296875 2.890625 29.09375 2.890625 
C 22.90625 2.890625 22.90625 3.6875 22.90625 4.875 
C 22.90625 5.078125 22.90625 5.578125 23.296875 7.171875 
z
" id="CMMI12-73"/>
      <path d="M 29.59375 31.59375 
L 46.40625 31.59375 
C 60.203125 31.59375 74 41.765625 74 53.125 
C 74 60.90625 67.40625 68 54.796875 68 
L 23.90625 68 
C 22 68 21.09375 68 21.09375 66.09375 
C 21.09375 65.09375 22 65.09375 23.5 65.09375 
C 29.59375 65.09375 29.59375 64.296875 29.59375 63.203125 
C 29.59375 63 29.59375 62.40625 29.203125 60.90625 
L 15.703125 7.359375 
C 14.796875 3.890625 14.59375 2.890625 7.59375 2.890625 
C 5.703125 2.890625 4.703125 2.890625 4.703125 1.09375 
C 4.703125 0 5.59375 0 6.203125 0 
C 8.09375 0 10.09375 0.1875 12 0.1875 
L 23.703125 0.1875 
C 25.59375 0.1875 27.703125 0 29.59375 0 
C 30.40625 0 31.5 0 31.5 1.890625 
C 31.5 2.890625 30.59375 2.890625 29.09375 2.890625 
C 23.09375 2.890625 23 3.59375 23 4.578125 
C 23 5.078125 23.09375 5.765625 23.203125 6.265625 
z
M 36.796875 61.203125 
C 37.703125 64.890625 38.09375 65.09375 42 65.09375 
L 51.90625 65.09375 
C 59.40625 65.09375 65.59375 62.703125 65.59375 55.21875 
C 65.59375 52.640625 64.296875 44.15625 59.703125 39.578125 
C 58 37.78125 53.203125 34 44.09375 34 
L 30 34 
z
" id="CMMI12-80"/>
      <path d="M 30.59375 -24.40625 
C 30.59375 -24.3125 30.59375 -24.109375 30.296875 -23.8125 
C 25.703125 -19.109375 13.40625 -6.296875 13.40625 24.9375 
C 13.40625 56.171875 25.5 68.875 30.40625 73.890625 
C 30.40625 73.984375 30.59375 74.1875 30.59375 74.484375 
C 30.59375 74.796875 30.296875 75 29.90625 75 
C 28.796875 75 20.296875 67.578125 15.40625 56.5625 
C 10.40625 45.453125 9 34.65625 9 25.046875 
C 9 17.828125 9.703125 5.625 15.703125 -7.296875 
C 20.5 -17.703125 28.703125 -25 29.90625 -25 
C 30.40625 -25 30.59375 -24.8125 30.59375 -24.40625 
z
" id="CMR17-40"/>
      <path d="M 36.59375 61.171875 
C 37.5 64.890625 37.90625 65.09375 41.796875 65.09375 
L 54.796875 65.09375 
C 66.09375 65.09375 66.09375 55.421875 66.09375 54.515625 
C 66.09375 46.359375 58 36 44.796875 36 
L 30.40625 36 
z
M 53.5 35.1875 
C 64.40625 37.203125 74.296875 44.859375 74.296875 54.109375 
C 74.296875 61.96875 67.40625 68 56.09375 68 
L 24 68 
C 22.09375 68 21.203125 68 21.203125 66.09375 
C 21.203125 65.09375 22.09375 65.09375 23.59375 65.09375 
C 29.703125 65.09375 29.703125 64.28125 29.703125 63.171875 
C 29.703125 62.984375 29.703125 62.375 29.296875 60.859375 
L 15.796875 7.328125 
C 14.90625 3.875 14.703125 2.890625 7.703125 2.890625 
C 5.796875 2.890625 4.796875 2.890625 4.796875 1.09375 
C 4.796875 0 5.40625 0 7.40625 0 
L 41.703125 0 
C 57 0 68.796875 11.453125 68.796875 21.390625 
C 68.796875 29.46875 61.59375 34.390625 53.5 35.1875 
z
M 39.296875 2.890625 
L 25.796875 2.890625 
C 24.40625 2.890625 24.203125 2.890625 23.59375 2.984375 
C 22.5 3.09375 22.40625 3.28125 22.40625 4.078125 
C 22.40625 4.765625 22.59375 5.359375 22.796875 6.234375 
L 29.796875 34 
L 48.59375 34 
C 60.40625 34 60.40625 23.171875 60.40625 22.375 
C 60.40625 12.9375 51.703125 2.890625 39.296875 2.890625 
z
" id="CMMI12-66"/>
      <path d="M 26.296875 24.9375 
C 26.296875 32.140625 25.59375 44.359375 19.59375 57.265625 
C 14.796875 67.6875 6.59375 75 5.40625 75 
C 5.09375 75 4.703125 74.890625 4.703125 74.390625 
C 4.703125 74.1875 4.796875 74.09375 4.90625 73.890625 
C 9.703125 68.875 21.90625 56.171875 21.90625 25.046875 
C 21.90625 -6.1875 9.796875 -18.90625 4.90625 -23.90625 
C 4.796875 -24.109375 4.703125 -24.203125 4.703125 -24.40625 
C 4.703125 -24.90625 5.09375 -25 5.40625 -25 
C 6.5 -25 15 -17.609375 19.90625 -6.59375 
C 24.90625 4.515625 26.296875 15.328125 26.296875 24.9375 
z
" id="CMR17-41"/>
      <path d="M 65.90625 23 
C 67.59375 23 69.40625 23 69.40625 25 
C 69.40625 27 67.59375 27 65.90625 27 
L 11.796875 27 
C 10.09375 27 8.296875 27 8.296875 25 
C 8.296875 23 10.09375 23 11.796875 23 
z
" id="CMSY10-0"/>
      <path d="M 69.5 23.265625 
C 69.59375 23.5625 69.90625 24.265625 69.90625 24.65625 
C 69.90625 25.171875 69.5 25.671875 68.90625 25.671875 
C 68.5 25.671875 68.296875 25.5625 68 25.265625 
C 67.796875 25.171875 67.796875 24.96875 66.90625 22.953125 
C 61 8.90625 56.703125 2.890625 40.703125 2.890625 
L 26.09375 2.890625 
C 24.703125 2.890625 24.5 2.890625 23.90625 3 
C 22.796875 3.09375 22.703125 3.296875 22.703125 4.09375 
C 22.703125 4.796875 22.90625 5.40625 23.09375 6.296875 
L 30 34 
L 39.90625 34 
C 47.703125 34 48.296875 32.28125 48.296875 29.28125 
C 48.296875 28.28125 48.296875 27.375 47.59375 24.359375 
C 47.40625 23.96875 47.296875 23.5625 47.296875 23.265625 
C 47.296875 22.5625 47.796875 22.25 48.40625 22.25 
C 49.296875 22.25 49.40625 22.953125 49.796875 24.359375 
L 55.5 47.4375 
C 55.5 47.9375 55.09375 48.421875 54.5 48.421875 
C 53.59375 48.421875 53.5 48.03125 53.09375 46.65625 
C 51.09375 39.0625 49.09375 36.890625 40.203125 36.890625 
L 30.703125 36.890625 
L 36.90625 61.140625 
C 37.796875 64.59375 38 64.890625 42.09375 64.890625 
L 56.40625 64.890625 
C 68.703125 64.890625 71.203125 61.640625 71.203125 54.140625 
C 71.203125 54.046875 71.203125 51.28125 70.796875 48.03125 
C 70.703125 47.640625 70.59375 47.046875 70.59375 46.84375 
C 70.59375 46.0625 71.09375 45.765625 71.703125 45.765625 
C 72.40625 45.765625 72.796875 46.15625 73 47.9375 
L 75.09375 65.1875 
C 75.09375 65.484375 75.296875 66.484375 75.296875 66.6875 
C 75.296875 67.796875 74.40625 67.796875 72.59375 67.796875 
L 23.796875 67.796875 
C 21.90625 67.796875 20.90625 67.796875 20.90625 65.984375 
C 20.90625 64.890625 21.59375 64.890625 23.296875 64.890625 
C 29.5 64.890625 29.5 64.203125 29.5 63.109375 
C 29.5 62.625 29.40625 62.234375 29.09375 61.140625 
L 15.59375 7.40625 
C 14.703125 3.890625 14.5 2.890625 7.5 2.890625 
C 5.59375 2.890625 4.59375 2.890625 4.59375 1.09375 
C 4.59375 0 5.203125 0 7.203125 0 
L 57.40625 0 
C 59.59375 0 59.703125 0.09375 60.40625 1.6875 
z
" id="CMMI12-69"/>
      <path d="M 17 11.25 
C 13.5 5.234375 10.09375 3.203125 5.296875 2.890625 
C 4.203125 2.796875 3.40625 2.796875 3.40625 1 
C 3.40625 0.390625 3.90625 0 4.59375 0 
C 6.40625 0 10.90625 0.1875 12.703125 0.1875 
C 15.59375 0.1875 18.796875 0 21.59375 0 
C 22.203125 0 23.40625 0 23.40625 1.890625 
C 23.40625 2.796875 22.59375 2.890625 22 2.890625 
C 19.703125 3.09375 17.796875 3.90625 17.796875 6.359375 
C 17.796875 7.78125 18.40625 8.90625 19.703125 11.15625 
L 27.296875 24 
L 52.796875 24 
C 52.90625 23.078125 52.90625 22.265625 53 21.34375 
C 53.296875 18.6875 54.5 8.09375 54.5 6.15625 
C 54.5 3.09375 49.40625 2.890625 47.796875 2.890625 
C 46.703125 2.890625 45.59375 2.890625 45.59375 1.09375 
C 45.59375 0 46.5 0 47.09375 0 
C 48.796875 0 50.796875 0.1875 52.5 0.1875 
L 58.203125 0.1875 
C 64.296875 0.1875 68.703125 0 68.796875 0 
C 69.5 0 70.59375 0 70.59375 1.890625 
C 70.59375 2.890625 69.703125 2.890625 68.203125 2.890625 
C 62.703125 2.890625 62.59375 3.8125 62.296875 6.875 
L 56.203125 68.796875 
C 56 70.796875 55.59375 71 54.5 71 
C 53.5 71 52.90625 70.796875 52 69.296875 
z
M 29 26.890625 
L 49.09375 59.859375 
L 52.5 26.890625 
z
" id="CMMI12-65"/>
      <path d="M 38.90625 41.140625 
C 35.796875 40.59375 34.203125 38.390625 34.203125 36.1875 
C 34.203125 33.796875 36.09375 32.984375 37.5 32.984375 
C 40.296875 32.984375 42.59375 35.390625 42.59375 38.390625 
C 42.59375 41.421875 39.5 44 34.5 44 
C 30.5 44 25.90625 42.1875 21.703125 36.484375 
C 21 41.5625 17 44 13 44 
C 9.09375 44 7.09375 41.28125 5.90625 39.1875 
C 4.203125 35.59375 2.703125 29.5625 2.703125 29.0625 
C 2.703125 28.65625 3.09375 28.140625 3.796875 28.140625 
C 4.59375 28.140625 4.703125 28.25 5.296875 30.578125 
C 6.796875 36.59375 8.703125 41.984375 12.703125 41.984375 
C 15.09375 41.984375 15.796875 40.6875 15.796875 37.796875 
C 15.796875 35.59375 14.796875 31.6875 14.09375 28.546875 
L 11.296875 17.65625 
C 10.90625 15.734375 9.796875 11.1875 9.296875 9.375 
C 8.59375 6.75 7.5 2 7.5 1.5 
C 7.5 0.09375 8.59375 -1 10.09375 -1 
C 11.203125 -1 13.09375 -0.3125 13.703125 1.703125 
C 14 2.5 17.703125 17.75 18.296875 20.078125 
C 18.796875 22.296875 19.40625 24.40625 19.90625 26.640625 
C 20.296875 28.046875 20.703125 29.65625 21 30.96875 
C 21.296875 31.875 24 36.796875 26.5 38.984375 
C 27.703125 40.09375 30.296875 41.984375 34.40625 41.984375 
C 36 41.984375 37.59375 41.78125 38.90625 41.140625 
z
" id="CMMI12-114"/>
      <path d="M 4.296875 -12.40625 
C 3.59375 -15.328125 3.203125 -16.109375 -0.90625 -16.109375 
C -2.109375 -16.109375 -3.109375 -16.109375 -3.109375 -18 
C -3.109375 -18.203125 -3 -19 -1.90625 -19 
C -0.609375 -19 0.796875 -18.8125 2.09375 -18.8125 
L 6.40625 -18.8125 
C 8.5 -18.8125 13.59375 -19 15.703125 -19 
C 16.296875 -19 17.5 -19 17.5 -17.203125 
C 17.5 -16.109375 16.796875 -16.109375 15.09375 -16.109375 
C 10.5 -16.109375 10.203125 -15.421875 10.203125 -14.640625 
C 10.203125 -13.484375 14.703125 3.390625 15.296875 5.6875 
C 16.40625 2.890625 19.09375 -1 24.296875 -1 
C 35.59375 -1 47.796875 13.65625 47.796875 28.328125 
C 47.796875 37.5 42.59375 44 35.09375 44 
C 28.703125 44 23.296875 37.796875 22.203125 36.40625 
C 21.40625 41.390625 17.5 44 13.5 44 
C 10.59375 44 8.296875 42.59375 6.40625 38.796875 
C 4.59375 35.203125 3.203125 29.125 3.203125 28.71875 
C 3.203125 28.328125 3.59375 27.828125 4.296875 27.828125 
C 5.09375 27.828125 5.203125 27.921875 5.796875 30.21875 
C 7.296875 36.109375 9.203125 41.984375 13.203125 41.984375 
C 15.5 41.984375 16.296875 40.390625 16.296875 37.40625 
C 16.296875 35.015625 16 34.015625 15.59375 32.21875 
z
M 21.59375 31.125 
C 22.296875 33.90625 25.09375 36.8125 26.703125 38.203125 
C 27.796875 39.203125 31.09375 41.984375 34.90625 41.984375 
C 39.296875 41.984375 41.296875 37.609375 41.296875 32.421875 
C 41.296875 27.625 38.5 16.359375 36 11.171875 
C 33.5 5.78125 28.90625 1 24.296875 1 
C 17.5 1 16.40625 9.578125 16.40625 9.96875 
C 16.40625 10.265625 16.59375 11.0625 16.703125 11.5625 
z
" id="CMMI12-112"/>
      <path d="M 23.5 -25 
L 23.5 -21.5 
L 14.09375 -21.5 
L 14.09375 71.484375 
L 23.5 71.484375 
L 23.5 75 
L 10.59375 75 
L 10.59375 -25 
z
" id="CMR17-91"/>
      <path d="M 17.90625 23 
C 20.59375 23 27.40625 23.1875 32.203125 25 
C 39.796875 27.90625 40.5 33.75 40.5 35.546875 
C 40.5 39.984375 36.703125 44 30.09375 44 
C 19.59375 44 4.5 34.453125 4.5 16.65625 
C 4.5 6.25 10.5 -1 19.59375 -1 
C 33.203125 -1 41.796875 9.515625 41.796875 10.796875 
C 41.796875 11.390625 41.203125 11.890625 40.796875 11.890625 
C 40.5 11.890625 40.40625 11.796875 39.5 10.90625 
C 33.09375 2.484375 23.59375 1 19.796875 1 
C 14.09375 1 11.09375 5.453125 11.09375 12.78125 
C 11.09375 14.171875 11.09375 16.65625 12.59375 23 
z
M 13.09375 25 
C 17.40625 40.484375 26.90625 41.984375 30.09375 41.984375 
C 34.5 41.984375 37.5 39.375 37.5 35.546875 
C 37.5 25 21.5 25 17.296875 25 
z
" id="CMMI12-101"/>
      <path d="M 61.90625 56.9375 
C 65.296875 62.296875 68.40625 64.6875 73.5 65.09375 
C 74.5 65.1875 75.296875 65.1875 75.296875 66.984375 
C 75.296875 67.390625 75.09375 68 74.203125 68 
C 72.40625 68 68.09375 67.796875 66.296875 67.796875 
C 63.40625 67.796875 60.40625 68 57.59375 68 
C 56.796875 68 55.796875 68 55.796875 66.09375 
C 55.796875 65.1875 56.703125 65.09375 57.09375 65.09375 
C 60.796875 64.78125 61.203125 63 61.203125 61.8125 
C 61.203125 60.3125 59.796875 58.03125 59.703125 57.9375 
L 28.296875 8.4375 
L 21.296875 62 
C 21.296875 64.890625 26.5 65.09375 27.59375 65.09375 
C 29.09375 65.09375 30 65.09375 30 66.984375 
C 30 68 28.90625 68 28.59375 68 
C 26.90625 68 24.90625 67.796875 23.203125 67.796875 
L 17.59375 67.796875 
C 10.296875 67.796875 7.296875 68 7.203125 68 
C 6.59375 68 5.40625 68 5.40625 66.1875 
C 5.40625 65.09375 6.09375 65.09375 7.703125 65.09375 
C 12.796875 65.09375 13.09375 64.1875 13.40625 61.703125 
L 21.40625 0.390625 
C 21.703125 -1.703125 21.703125 -2 23.09375 -2 
C 24.296875 -2 24.796875 -1.703125 25.796875 -0.109375 
z
" id="CMMI12-86"/>
      <path d="M 19.203125 25.296875 
C 19.203125 28.1875 16.796875 30.59375 13.90625 30.59375 
C 11 30.59375 8.59375 28.1875 8.59375 25.296875 
C 8.59375 22.390625 11 20 13.90625 20 
C 16.796875 20 19.203125 22.390625 19.203125 25.296875 
z
" id="CMSY10-1"/>
      <path d="M 41.703125 60.234375 
C 41.703125 64.796875 37.203125 69 31.203125 69 
C 25.203125 69 20.703125 64.796875 20.703125 60.234375 
C 20.703125 55.6875 25.203125 51.484375 31.203125 51.484375 
C 37.203125 51.484375 41.703125 55.6875 41.703125 60.234375 
z
M 31.203125 56 
C 29 56 26 56.6875 26 60.234375 
C 26 63.609375 28.703125 64.484375 31.203125 64.484375 
C 33.40625 64.484375 36.40625 63.796875 36.40625 60.234375 
C 36.40625 56.875 33.703125 56 31.203125 56 
z
" id="CMSS17-23"/>
      <path d="M 14.296875 75 
L 1.40625 75 
L 1.40625 71.484375 
L 10.796875 71.484375 
L 10.796875 -21.5 
L 1.40625 -21.5 
L 1.40625 -25 
L 14.296875 -25 
z
" id="CMR17-93"/>
     </defs>
     <g transform="translate(163.769032 281.420921)scale(0.1 -0.1)">
      <use transform="translate(0 150.680797)scale(0.996264)" xlink:href="#CMSY10-106"/>
      <use transform="translate(27.674085 150.680797)scale(0.996264)" xlink:href="#CMMI12-73"/>
      <use transform="translate(78.530599 150.680797)scale(0.996264)" xlink:href="#CMMI12-80"/>
      <use transform="translate(154.95642 150.680797)scale(0.996264)" xlink:href="#CMR17-40"/>
      <use transform="translate(190.237187 150.680797)scale(0.996264)" xlink:href="#CMMI12-66"/>
      <use transform="translate(269.372711 150.680797)scale(0.996264)" xlink:href="#CMR17-41"/>
      <use transform="translate(326.792685 150.680797)scale(0.996264)" xlink:href="#CMSY10-0"/>
      <use transform="translate(426.41936 150.680797)scale(0.996264)" xlink:href="#CMMI12-69"/>
      <use transform="translate(504.470996 150.680797)scale(0.996264)" xlink:href="#CMMI12-65"/>
      <use transform="translate(577.598882 150.680797)scale(0.996264)" xlink:href="#CMR17-40"/>
      <use transform="translate(612.879649 150.680797)scale(0.996264)" xlink:href="#CMMI12-66"/>
      <use transform="translate(692.015173 150.680797)scale(0.996264)" xlink:href="#CMR17-41"/>
      <use transform="translate(727.29594 150.680797)scale(0.996264)" xlink:href="#CMSY10-106"/>
      <use transform="translate(250.034386 14.943915)scale(0.996264)" xlink:href="#CMMI12-114"/>
      <use transform="translate(293.995281 0)scale(0.697382)" xlink:href="#CMMI12-112"/>
      <use transform="translate(328.764919 14.943915)scale(0.996264)" xlink:href="#CMR17-40"/>
      <use transform="translate(364.045687 14.943915)scale(0.996264)" xlink:href="#CMMI12-65"/>
      <use transform="translate(437.173572 14.943915)scale(0.996264)" xlink:href="#CMR17-41"/>
      <use transform="translate(472.45434 43.724871)scale(0.697382)" xlink:href="#CMR17-50"/>
      <use transform="translate(849.852877 83.282752)scale(0.996264)" xlink:href="#CMR17-91"/>
      <use transform="translate(874.723936 83.282752)scale(0.996264)" xlink:href="#CMMI12-101"/>
      <use transform="translate(919.935937 83.282752)scale(0.996264)" xlink:href="#CMMI12-86"/>
      <use transform="translate(1020.622464 83.282752)scale(0.996264)" xlink:href="#CMSY10-1"/>
      <use transform="translate(1070.435756 100.901496)scale(0.996264)" xlink:href="#CMSS17-23"/>
      <use transform="translate(1070.435756 83.282752)scale(0.996264)" xlink:href="#CMMI12-65"/>
      <use transform="translate(1143.563641 124.417726)scale(0.697382)" xlink:href="#CMR17-50"/>
      <use transform="translate(1176.044955 83.282752)scale(0.996264)" xlink:href="#CMR17-93"/>
      <path d="M 0 106.196885 
L 754.970025 106.196885 
L 754.970025 110.181835 
L 0 110.181835 
L 0 106.196885 
z
"/>
     </g>
    </g>
   </g>
   <g id="matplotlib.axis_2">
    <g id="ytick_1">
     <g id="line2d_7">
      <defs>
       <path d="M 0 0 
L -3.5 0 
" id="m24f4f1f97f" style="stroke:#000000;stroke-width:0.8;"/>
      </defs>
      <g>
       <use style="stroke:#000000;stroke-width:0.8;" x="59.447726" xlink:href="#m24f4f1f97f" y="220.737458"/>
      </g>
     </g>
     <g id="text_8">
      <!-- $0.00$ -->
      <defs>
       <path d="M 18.40625 4.796875 
C 18.40625 7.6875 16 9.6875 13.59375 9.6875 
C 10.703125 9.6875 8.703125 7.296875 8.703125 4.890625 
C 8.703125 2 11.09375 0 13.5 0 
C 16.40625 0 18.40625 2.390625 18.40625 4.796875 
z
" id="CMMI12-58"/>
      </defs>
      <g transform="translate(34.736312 224.196707)scale(0.1 -0.1)">
       <use transform="scale(0.996264)" xlink:href="#CMR17-48"/>
       <use transform="translate(45.690477 0)scale(0.996264)" xlink:href="#CMMI12-58"/>
       <use transform="translate(72.787654 0)scale(0.996264)" xlink:href="#CMR17-48"/>
       <use transform="translate(118.478131 0)scale(0.996264)" xlink:href="#CMR17-48"/>
      </g>
     </g>
    </g>
    <g id="ytick_2">
     <g id="line2d_8">
      <g>
       <use style="stroke:#000000;stroke-width:0.8;" x="59.447726" xlink:href="#m24f4f1f97f" y="186.594222"/>
      </g>
     </g>
     <g id="text_9">
      <!-- $0.05$ -->
      <g transform="translate(34.736312 190.053472)scale(0.1 -0.1)">
       <use transform="scale(0.996264)" xlink:href="#CMR17-48"/>
       <use transform="translate(45.690477 0)scale(0.996264)" xlink:href="#CMMI12-58"/>
       <use transform="translate(72.787654 0)scale(0.996264)" xlink:href="#CMR17-48"/>
       <use transform="translate(118.478131 0)scale(0.996264)" xlink:href="#CMR17-53"/>
      </g>
     </g>
    </g>
    <g id="ytick_3">
     <g id="line2d_9">
      <g>
       <use style="stroke:#000000;stroke-width:0.8;" x="59.447726" xlink:href="#m24f4f1f97f" y="152.450987"/>
      </g>
     </g>
     <g id="text_10">
      <!-- $0.10$ -->
      <g transform="translate(34.736312 155.910236)scale(0.1 -0.1)">
       <use transform="scale(0.996264)" xlink:href="#CMR17-48"/>
       <use transform="translate(45.690477 0)scale(0.996264)" xlink:href="#CMMI12-58"/>
       <use transform="translate(72.787654 0)scale(0.996264)" xlink:href="#CMR17-49"/>
       <use transform="translate(118.478131 0)scale(0.996264)" xlink:href="#CMR17-48"/>
      </g>
     </g>
    </g>
    <g id="ytick_4">
     <g id="line2d_10">
      <g>
       <use style="stroke:#000000;stroke-width:0.8;" x="59.447726" xlink:href="#m24f4f1f97f" y="118.307752"/>
      </g>
     </g>
     <g id="text_11">
      <!-- $0.15$ -->
      <g transform="translate(34.736312 121.767001)scale(0.1 -0.1)">
       <use transform="scale(0.996264)" xlink:href="#CMR17-48"/>
       <use transform="translate(45.690477 0)scale(0.996264)" xlink:href="#CMMI12-58"/>
       <use transform="translate(72.787654 0)scale(0.996264)" xlink:href="#CMR17-49"/>
       <use transform="translate(118.478131 0)scale(0.996264)" xlink:href="#CMR17-53"/>
      </g>
     </g>
    </g>
    <g id="ytick_5">
     <g id="line2d_11">
      <g>
       <use style="stroke:#000000;stroke-width:0.8;" x="59.447726" xlink:href="#m24f4f1f97f" y="84.164516"/>
      </g>
     </g>
     <g id="text_12">
      <!-- $0.20$ -->
      <g transform="translate(34.736312 87.623766)scale(0.1 -0.1)">
       <use transform="scale(0.996264)" xlink:href="#CMR17-48"/>
       <use transform="translate(45.690477 0)scale(0.996264)" xlink:href="#CMMI12-58"/>
       <use transform="translate(72.787654 0)scale(0.996264)" xlink:href="#CMR17-50"/>
       <use transform="translate(118.478131 0)scale(0.996264)" xlink:href="#CMR17-48"/>
      </g>
     </g>
    </g>
    <g id="ytick_6">
     <g id="line2d_12">
      <g>
       <use style="stroke:#000000;stroke-width:0.8;" x="59.447726" xlink:href="#m24f4f1f97f" y="50.021281"/>
      </g>
     </g>
     <g id="text_13">
      <!-- $0.25$ -->
      <g transform="translate(34.736312 53.48053)scale(0.1 -0.1)">
       <use transform="scale(0.996264)" xlink:href="#CMR17-48"/>
       <use transform="translate(45.690477 0)scale(0.996264)" xlink:href="#CMMI12-58"/>
       <use transform="translate(72.787654 0)scale(0.996264)" xlink:href="#CMR17-50"/>
       <use transform="translate(118.478131 0)scale(0.996264)" xlink:href="#CMR17-53"/>
      </g>
     </g>
    </g>
    <g id="text_14">
     <!-- $\displaystyle \frac{|r_s(A)-r_p(B)|}{exp(r_s(A))}$  \space \space $\displaystyle[\AA]$ -->
     <defs>
      <path d="M 22.796875 20.15625 
C 24.5 19.859375 27.203125 19.265625 27.796875 19.171875 
C 29.09375 18.765625 33.59375 17.171875 33.59375 12.390625 
C 33.59375 9.296875 30.796875 1 19.203125 1 
C 17.09375 1 9.59375 1.296875 7.59375 6.984375 
C 11.59375 6.46875 13.59375 9.59375 13.59375 11.796875 
C 13.59375 13.890625 12.203125 15 10.203125 15 
C 8 15 5.09375 13.296875 5.09375 8.796875 
C 5.09375 2.75 11.09375 -1 19.09375 -1 
C 34.296875 -1 38.796875 10.390625 38.796875 15.59375 
C 38.796875 17.078125 38.796875 19.859375 35.59375 23.046875 
C 33.09375 25.421875 30.703125 25.921875 25.296875 27.015625 
C 22.59375 27.609375 18.296875 28.5 18.296875 32.984375 
C 18.296875 34.984375 20.09375 41.984375 29.59375 41.984375 
C 33.796875 41.984375 37.90625 40.453125 38.90625 37 
C 34.5 37 34.296875 33.1875 34.296875 33.09375 
C 34.296875 30.984375 36.203125 30.390625 37.09375 30.390625 
C 38.5 30.390625 41.296875 31.484375 41.296875 35.6875 
C 41.296875 39.78125 37.5 44 29.703125 44 
C 16.59375 44 13.09375 33.890625 13.09375 29.796875 
C 13.09375 22.25 20.5 20.65625 22.796875 20.15625 
z
" id="CMMI12-115"/>
      <path d="M 47.40625 41 
C 44.203125 40.390625 43 37.984375 43 36.09375 
C 43 33.6875 44.90625 32.890625 46.296875 32.890625 
C 49.296875 32.890625 51.40625 35.484375 51.40625 38.1875 
C 51.40625 42.09375 46.59375 44 42.40625 44 
C 36.296875 44 32.90625 38.296875 32 36.390625 
C 29.703125 43.59375 23.5 44 21.703125 44 
C 11.5 44 6.09375 31.140625 6.09375 28.890625 
C 6.09375 28.484375 6.5 27.96875 7.203125 27.96875 
C 8 27.96875 8.203125 28.578125 8.40625 28.984375 
C 11.796875 40.1875 18.5 41.984375 21.40625 41.984375 
C 25.90625 41.984375 26.796875 38.09375 26.796875 35.6875 
C 26.796875 33.484375 26.203125 31.140625 25 26.21875 
L 21.59375 12.15625 
C 20.09375 6.09375 17.203125 1 11.90625 1 
C 11.40625 1 8.90625 1 6.796875 1.96875 
C 10.40625 2.59375 11.203125 5.59375 11.203125 6.796875 
C 11.203125 8.796875 9.703125 10 7.796875 10 
C 5.40625 10 2.796875 7.890625 2.796875 4.6875 
C 2.796875 0.890625 7.5 -1 11.796875 -1 
C 16.59375 -1 20 2.390625 22.09375 6.484375 
C 23.703125 1 28.703125 -1 32.40625 -1 
C 42.59375 -1 48 11.734375 48 14 
C 48 14.515625 47.59375 14.921875 47 14.921875 
C 46.09375 14.921875 46 14.40625 45.703125 13.59375 
C 43 4.6875 37.203125 1 32.703125 1 
C 29.203125 1 27.296875 3.1875 27.296875 7.296875 
C 27.296875 9.484375 27.703125 11.125 29.296875 17.90625 
L 32.796875 31.859375 
C 34.296875 37.890625 37.703125 41.984375 42.296875 41.984375 
C 42.5 41.984375 45.296875 41.984375 47.40625 41 
z
" id="CMMI12-120"/>
     </defs>
     <g transform="translate(28.799133 176.263978)rotate(-90)scale(0.1 -0.1)">
      <use transform="translate(0 150.680797)scale(0.996264)" xlink:href="#CMSY10-106"/>
      <use transform="translate(27.674085 150.680797)scale(0.996264)" xlink:href="#CMMI12-114"/>
      <use transform="translate(71.634979 135.736882)scale(0.697382)" xlink:href="#CMMI12-115"/>
      <use transform="translate(104.298 150.680797)scale(0.996264)" xlink:href="#CMR17-40"/>
      <use transform="translate(139.578768 150.680797)scale(0.996264)" xlink:href="#CMMI12-65"/>
      <use transform="translate(212.706653 150.680797)scale(0.996264)" xlink:href="#CMR17-41"/>
      <use transform="translate(270.126628 150.680797)scale(0.996264)" xlink:href="#CMSY10-0"/>
      <use transform="translate(369.753302 150.680797)scale(0.996264)" xlink:href="#CMMI12-114"/>
      <use transform="translate(413.714197 135.736882)scale(0.697382)" xlink:href="#CMMI12-112"/>
      <use transform="translate(448.483835 150.680797)scale(0.996264)" xlink:href="#CMR17-40"/>
      <use transform="translate(483.764603 150.680797)scale(0.996264)" xlink:href="#CMMI12-66"/>
      <use transform="translate(562.900126 150.680797)scale(0.996264)" xlink:href="#CMR17-41"/>
      <use transform="translate(598.180894 150.680797)scale(0.996264)" xlink:href="#CMSY10-106"/>
      <use transform="translate(92.687274 14.943915)scale(0.996264)" xlink:href="#CMMI12-101"/>
      <use transform="translate(137.899275 14.943915)scale(0.996264)" xlink:href="#CMMI12-120"/>
      <use transform="translate(193.333334 14.943915)scale(0.996264)" xlink:href="#CMMI12-112"/>
      <use transform="translate(242.292848 14.943915)scale(0.996264)" xlink:href="#CMR17-40"/>
      <use transform="translate(277.573616 14.943915)scale(0.996264)" xlink:href="#CMMI12-114"/>
      <use transform="translate(321.53451 0)scale(0.697382)" xlink:href="#CMMI12-115"/>
      <use transform="translate(354.197531 14.943915)scale(0.996264)" xlink:href="#CMR17-40"/>
      <use transform="translate(389.478299 14.943915)scale(0.996264)" xlink:href="#CMMI12-65"/>
      <use transform="translate(462.606184 14.943915)scale(0.996264)" xlink:href="#CMR17-41"/>
      <use transform="translate(497.886952 14.943915)scale(0.996264)" xlink:href="#CMR17-41"/>
      <use transform="translate(720.737831 83.282752)scale(0.996264)" xlink:href="#CMR17-91"/>
      <use transform="translate(745.608889 100.901496)scale(0.996264)" xlink:href="#CMSS17-23"/>
      <use transform="translate(745.608889 83.282752)scale(0.996264)" xlink:href="#CMMI12-65"/>
      <use transform="translate(818.736774 83.282752)scale(0.996264)" xlink:href="#CMR17-93"/>
      <path d="M 0 106.196885 
L 625.854979 106.196885 
L 625.854979 110.181835 
L 0 110.181835 
L 0 106.196885 
z
"/>
     </g>
    </g>
   </g>
   <g id="line2d_13">
    <defs>
     <path d="M -0 2.828427 
L 1.697056 0 
L 0 -2.828427 
L -1.697056 -0 
z
" id="m1147267e91" style="stroke:#bfa6a6;stroke-linejoin:miter;"/>
    </defs>
    <g clip-path="url(#p8d8e41c002)">
     <use style="fill:#bfa6a6;stroke:#bfa6a6;stroke-linejoin:miter;" x="112.667599" xlink:href="#m1147267e91" y="53.077515"/>
     <use style="fill:#bfa6a6;stroke:#bfa6a6;stroke-linejoin:miter;" x="96.362199" xlink:href="#m1147267e91" y="103.467116"/>
     <use style="fill:#bfa6a6;stroke:#bfa6a6;stroke-linejoin:miter;" x="93.163832" xlink:href="#m1147267e91" y="119.958257"/>
     <use style="fill:#bfa6a6;stroke:#bfa6a6;stroke-linejoin:miter;" x="89.504524" xlink:href="#m1147267e91" y="144.69497"/>
     <use style="fill:#bfa6a6;stroke:#bfa6a6;stroke-linejoin:miter;" x="93.220706" xlink:href="#m1147267e91" y="55.572124"/>
     <use style="fill:#bfa6a6;stroke:#bfa6a6;stroke-linejoin:miter;" x="83.598529" xlink:href="#m1147267e91" y="102.88511"/>
     <use style="fill:#bfa6a6;stroke:#bfa6a6;stroke-linejoin:miter;" x="81.711102" xlink:href="#m1147267e91" y="118.36936"/>
     <use style="fill:#bfa6a6;stroke:#bfa6a6;stroke-linejoin:miter;" x="79.551663" xlink:href="#m1147267e91" y="141.595735"/>
     <use style="fill:#bfa6a6;stroke:#bfa6a6;stroke-linejoin:miter;" x="111.786874" xlink:href="#m1147267e91" y="57.653682"/>
     <use style="fill:#bfa6a6;stroke:#bfa6a6;stroke-linejoin:miter;" x="96.260632" xlink:href="#m1147267e91" y="133.506601"/>
     <use style="fill:#bfa6a6;stroke:#bfa6a6;stroke-linejoin:miter;" x="93.642291" xlink:href="#m1147267e91" y="152.469831"/>
     <use style="fill:#bfa6a6;stroke:#bfa6a6;stroke-linejoin:miter;" x="90.195098" xlink:href="#m1147267e91" y="186.603644"/>
     <use style="fill:#bfa6a6;stroke:#bfa6a6;stroke-linejoin:miter;" x="96.861885" xlink:href="#m1147267e91" y="77.871824"/>
     <use style="fill:#bfa6a6;stroke:#bfa6a6;stroke-linejoin:miter;" x="85.988361" xlink:href="#m1147267e91" y="109.177043"/>
     <use style="fill:#bfa6a6;stroke:#bfa6a6;stroke-linejoin:miter;" x="83.855477" xlink:href="#m1147267e91" y="119.422387"/>
     <use style="fill:#bfa6a6;stroke:#bfa6a6;stroke-linejoin:miter;" x="81.415207" xlink:href="#m1147267e91" y="134.790403"/>
     <use style="fill:#bfa6a6;stroke:#bfa6a6;stroke-linejoin:miter;" x="96.247654" xlink:href="#m1147267e91" y="64.015119"/>
     <use style="fill:#bfa6a6;stroke:#bfa6a6;stroke-linejoin:miter;" x="85.902695" xlink:href="#m1147267e91" y="113.506384"/>
     <use style="fill:#bfa6a6;stroke:#bfa6a6;stroke-linejoin:miter;" x="84.158124" xlink:href="#m1147267e91" y="125.8792"/>
     <use style="fill:#bfa6a6;stroke:#bfa6a6;stroke-linejoin:miter;" x="81.861299" xlink:href="#m1147267e91" y="148.150269"/>
     <use style="fill:#bfa6a6;stroke:#bfa6a6;stroke-linejoin:miter;" x="132.127699" xlink:href="#m1147267e91" y="50.339565"/>
     <use style="fill:#bfa6a6;stroke:#bfa6a6;stroke-linejoin:miter;" x="83.674429" xlink:href="#m1147267e91" y="84.867222"/>
     <use style="fill:#bfa6a6;stroke:#bfa6a6;stroke-linejoin:miter;" x="77.332976" xlink:href="#m1147267e91" y="112.855473"/>
     <use style="fill:#bfa6a6;stroke:#bfa6a6;stroke-linejoin:miter;" x="76.089076" xlink:href="#m1147267e91" y="122.015264"/>
     <use style="fill:#bfa6a6;stroke:#bfa6a6;stroke-linejoin:miter;" x="74.665908" xlink:href="#m1147267e91" y="135.754951"/>
     <use style="fill:#bfa6a6;stroke:#bfa6a6;stroke-linejoin:miter;" x="91.03238" xlink:href="#m1147267e91" y="70.82704"/>
     <use style="fill:#bfa6a6;stroke:#bfa6a6;stroke-linejoin:miter;" x="82.426364" xlink:href="#m1147267e91" y="113.254517"/>
     <use style="fill:#bfa6a6;stroke:#bfa6a6;stroke-linejoin:miter;" x="80.975048" xlink:href="#m1147267e91" y="123.861386"/>
     <use style="fill:#bfa6a6;stroke:#bfa6a6;stroke-linejoin:miter;" x="79.064309" xlink:href="#m1147267e91" y="142.953751"/>
     <use style="fill:#bfa6a6;stroke:#bfa6a6;stroke-linejoin:miter;" x="118.479536" xlink:href="#m1147267e91" y="47.66222"/>
     <use style="fill:#bfa6a6;stroke:#bfa6a6;stroke-linejoin:miter;" x="100.176775" xlink:href="#m1147267e91" y="118.174354"/>
     <use style="fill:#bfa6a6;stroke:#bfa6a6;stroke-linejoin:miter;" x="96.586618" xlink:href="#m1147267e91" y="141.251052"/>
     <use style="fill:#bfa6a6;stroke:#bfa6a6;stroke-linejoin:miter;" x="120.82441" xlink:href="#m1147267e91" y="60.383477"/>
     <use style="fill:#bfa6a6;stroke:#bfa6a6;stroke-linejoin:miter;" x="84.084926" xlink:href="#m1147267e91" y="99.118216"/>
     <use style="fill:#bfa6a6;stroke:#bfa6a6;stroke-linejoin:miter;" x="77.6024" xlink:href="#m1147267e91" y="121.489648"/>
     <use style="fill:#bfa6a6;stroke:#bfa6a6;stroke-linejoin:miter;" x="76.330827" xlink:href="#m1147267e91" y="128.811208"/>
     <use style="fill:#bfa6a6;stroke:#bfa6a6;stroke-linejoin:miter;" x="74.875999" xlink:href="#m1147267e91" y="139.793548"/>
     <use style="fill:#bfa6a6;stroke:#bfa6a6;stroke-linejoin:miter;" x="89.4112" xlink:href="#m1147267e91" y="83.627508"/>
     <use style="fill:#bfa6a6;stroke:#bfa6a6;stroke-linejoin:miter;" x="81.345738" xlink:href="#m1147267e91" y="117.068959"/>
     <use style="fill:#bfa6a6;stroke:#bfa6a6;stroke-linejoin:miter;" x="79.985581" xlink:href="#m1147267e91" y="125.429322"/>
     <use style="fill:#bfa6a6;stroke:#bfa6a6;stroke-linejoin:miter;" x="78.194857" xlink:href="#m1147267e91" y="140.477975"/>
    </g>
   </g>
   <g id="line2d_14">
    <defs>
     <path d="M -0 2.828427 
L 1.697056 0 
L 0 -2.828427 
L -1.697056 -0 
z
" id="m78bb9b319c" style="stroke:#ff0d0d;stroke-linejoin:miter;"/>
    </defs>
    <g clip-path="url(#p8d8e41c002)">
     <use style="fill:#ff0d0d;stroke:#ff0d0d;stroke-linejoin:miter;" x="179.484755" xlink:href="#m78bb9b319c" y="69.469758"/>
     <use style="fill:#ff0d0d;stroke:#ff0d0d;stroke-linejoin:miter;" x="141.38583" xlink:href="#m78bb9b319c" y="167.061822"/>
     <use style="fill:#ff0d0d;stroke:#ff0d0d;stroke-linejoin:miter;" x="134.960839" xlink:href="#m78bb9b319c" y="191.459838"/>
     <use style="fill:#ff0d0d;stroke:#ff0d0d;stroke-linejoin:miter;" x="126.501975" xlink:href="#m78bb9b319c" y="206.098648"/>
     <use style="fill:#ff0d0d;stroke:#ff0d0d;stroke-linejoin:miter;" x="279.564035" xlink:href="#m78bb9b319c" y="130.979091"/>
     <use style="fill:#ff0d0d;stroke:#ff0d0d;stroke-linejoin:miter;" x="208.464239" xlink:href="#m78bb9b319c" y="171.584067"/>
     <use style="fill:#ff0d0d;stroke:#ff0d0d;stroke-linejoin:miter;" x="201.00123" xlink:href="#m78bb9b319c" y="148.075923"/>
     <use style="fill:#ff0d0d;stroke:#ff0d0d;stroke-linejoin:miter;" x="379.029544" xlink:href="#m78bb9b319c" y="215.71661"/>
     <use style="fill:#ff0d0d;stroke:#ff0d0d;stroke-linejoin:miter;" x="140.586234" xlink:href="#m78bb9b319c" y="87.611966"/>
     <use style="fill:#ff0d0d;stroke:#ff0d0d;stroke-linejoin:miter;" x="115.587028" xlink:href="#m78bb9b319c" y="191.866869"/>
     <use style="fill:#ff0d0d;stroke:#ff0d0d;stroke-linejoin:miter;" x="112.96298" xlink:href="#m78bb9b319c" y="209.510007"/>
     <use style="fill:#ff0d0d;stroke:#ff0d0d;stroke-linejoin:miter;" x="107.804924" xlink:href="#m78bb9b319c" y="188.659026"/>
     <use style="fill:#ff0d0d;stroke:#ff0d0d;stroke-linejoin:miter;" x="162.076195" xlink:href="#m78bb9b319c" y="138.415221"/>
     <use style="fill:#ff0d0d;stroke:#ff0d0d;stroke-linejoin:miter;" x="130.875176" xlink:href="#m78bb9b319c" y="168.35058"/>
     <use style="fill:#ff0d0d;stroke:#ff0d0d;stroke-linejoin:miter;" x="109.134537" xlink:href="#m78bb9b319c" y="129.762312"/>
     <use style="fill:#ff0d0d;stroke:#ff0d0d;stroke-linejoin:miter;" x="104.62434" xlink:href="#m78bb9b319c" y="155.755211"/>
     <use style="fill:#ff0d0d;stroke:#ff0d0d;stroke-linejoin:miter;" x="99.464144" xlink:href="#m78bb9b319c" y="194.744559"/>
     <use style="fill:#ff0d0d;stroke:#ff0d0d;stroke-linejoin:miter;" x="135.240435" xlink:href="#m78bb9b319c" y="67.835057"/>
     <use style="fill:#ff0d0d;stroke:#ff0d0d;stroke-linejoin:miter;" x="111.894011" xlink:href="#m78bb9b319c" y="163.399057"/>
     <use style="fill:#ff0d0d;stroke:#ff0d0d;stroke-linejoin:miter;" x="107.956876" xlink:href="#m78bb9b319c" y="187.290058"/>
     <use style="fill:#ff0d0d;stroke:#ff0d0d;stroke-linejoin:miter;" x="102.773417" xlink:href="#m78bb9b319c" y="211.181058"/>
     <use style="fill:#ff0d0d;stroke:#ff0d0d;stroke-linejoin:miter;" x="147.895101" xlink:href="#m78bb9b319c" y="98.671916"/>
     <use style="fill:#ff0d0d;stroke:#ff0d0d;stroke-linejoin:miter;" x="120.471457" xlink:href="#m78bb9b319c" y="213.661195"/>
     <use style="fill:#ff0d0d;stroke:#ff0d0d;stroke-linejoin:miter;" x="117.592927" xlink:href="#m78bb9b319c" y="208.353997"/>
     <use style="fill:#ff0d0d;stroke:#ff0d0d;stroke-linejoin:miter;" x="111.93464" xlink:href="#m78bb9b319c" y="160.58922"/>
     <use style="fill:#ff0d0d;stroke:#ff0d0d;stroke-linejoin:miter;" x="126.390603" xlink:href="#m78bb9b319c" y="153.864164"/>
     <use style="fill:#ff0d0d;stroke:#ff0d0d;stroke-linejoin:miter;" x="92.479056" xlink:href="#m78bb9b319c" y="175.8661"/>
     <use style="fill:#ff0d0d;stroke:#ff0d0d;stroke-linejoin:miter;" x="102.284759" xlink:href="#m78bb9b319c" y="144.046423"/>
     <use style="fill:#ff0d0d;stroke:#ff0d0d;stroke-linejoin:miter;" x="99.158238" xlink:href="#m78bb9b319c" y="164.96216"/>
     <use style="fill:#ff0d0d;stroke:#ff0d0d;stroke-linejoin:miter;" x="95.041996" xlink:href="#m78bb9b319c" y="202.610486"/>
     <use style="fill:#ff0d0d;stroke:#ff0d0d;stroke-linejoin:miter;" x="130.391429" xlink:href="#m78bb9b319c" y="83.859735"/>
     <use style="fill:#ff0d0d;stroke:#ff0d0d;stroke-linejoin:miter;" x="108.773961" xlink:href="#m78bb9b319c" y="183.826611"/>
     <use style="fill:#ff0d0d;stroke:#ff0d0d;stroke-linejoin:miter;" x="106.504878" xlink:href="#m78bb9b319c" y="200.744083"/>
     <use style="fill:#ff0d0d;stroke:#ff0d0d;stroke-linejoin:miter;" x="102.044572" xlink:href="#m78bb9b319c" y="199.206131"/>
     <use style="fill:#ff0d0d;stroke:#ff0d0d;stroke-linejoin:miter;" x="106.703674" xlink:href="#m78bb9b319c" y="152.634293"/>
     <use style="fill:#ff0d0d;stroke:#ff0d0d;stroke-linejoin:miter;" x="186.331295" xlink:href="#m78bb9b319c" y="90.374116"/>
     <use style="fill:#ff0d0d;stroke:#ff0d0d;stroke-linejoin:miter;" x="157.464761" xlink:href="#m78bb9b319c" y="142.400171"/>
     <use style="fill:#ff0d0d;stroke:#ff0d0d;stroke-linejoin:miter;" x="134.173869" xlink:href="#m78bb9b319c" y="119.413236"/>
     <use style="fill:#ff0d0d;stroke:#ff0d0d;stroke-linejoin:miter;" x="127.749289" xlink:href="#m78bb9b319c" y="161.506827"/>
     <use style="fill:#ff0d0d;stroke:#ff0d0d;stroke-linejoin:miter;" x="111.961425" xlink:href="#m78bb9b319c" y="202.465877"/>
     <use style="fill:#ff0d0d;stroke:#ff0d0d;stroke-linejoin:miter;" x="110.945802" xlink:href="#m78bb9b319c" y="195.821666"/>
    </g>
   </g>
   <g id="line2d_15">
    <path clip-path="url(#p8d8e41c002)" d="M 77.702001 229.72274 
L 127.621924 32.050012 
" style="fill:none;stroke:#008000;stroke-linecap:square;"/>
   </g>
   <g id="patch_3">
    <path d="M 59.447726 239.606376 
L 59.447726 22.166376 
" style="fill:none;stroke:#000000;stroke-linecap:square;stroke-linejoin:miter;stroke-width:0.8;"/>
   </g>
   <g id="patch_4">
    <path d="M 394.247726 239.606376 
L 394.247726 22.166376 
" style="fill:none;stroke:#000000;stroke-linecap:square;stroke-linejoin:miter;stroke-width:0.8;"/>
   </g>
   <g id="patch_5">
    <path d="M 59.447726 239.606376 
L 394.247726 239.606376 
" style="fill:none;stroke:#000000;stroke-linecap:square;stroke-linejoin:miter;stroke-width:0.8;"/>
   </g>
   <g id="patch_6">
    <path d="M 59.447726 22.166376 
L 394.247726 22.166376 
" style="fill:none;stroke:#000000;stroke-linecap:square;stroke-linejoin:miter;stroke-width:0.8;"/>
   </g>
   <g id="text_15">
    <!-- C -->
    <defs>
     <path d="M 54.703125 11.015625 
C 48 6.5 44.90625 5.1875 36.796875 5.1875 
C 22.796875 5.1875 14.59375 20.375 14.59375 34.234375 
C 14.59375 49.015625 23 63.59375 37.203125 63.59375 
C 43.59375 63.59375 47.796875 61.78125 52.90625 58.5625 
L 54.296875 66.484375 
C 49.5 68.890625 43.40625 70 37.296875 70 
C 18.09375 70 6.203125 52.234375 6.203125 34.234375 
C 6.203125 14.4375 20.296875 -1.203125 36.296875 -1.203125 
C 44.90625 -1.203125 47.90625 -0.5 55.296875 4.1875 
z
" id="CMSS17-67"/>
    </defs>
    <g transform="translate(378.469533 209.128758)scale(0.1 -0.1)">
     <use transform="scale(0.996264)" xlink:href="#CMSS17-67"/>
    </g>
   </g>
   <g id="text_16">
    <!-- 2D Descriptor Classification Line $\displaystyle( \Delta \space E = 0) $ -->
    <defs>
     <path d="M 25.796875 21.140625 
C 28.59375 24.03125 32.796875 27.515625 35.703125 31 
C 38.5 34.390625 42.203125 39.171875 42.203125 46.140625 
C 42.203125 57.109375 34.796875 67 22.203125 67 
C 12.296875 67 6.59375 60.796875 3.90625 51.125 
L 7.796875 45.75 
C 10 54.8125 13.09375 60.59375 20.90625 60.59375 
C 29.5 60.59375 34.296875 53.609375 34.296875 45.9375 
C 34.296875 36.78125 27.296875 29.703125 22 24.421875 
C 16.09375 18.546875 10.296875 12.578125 4.703125 6.390625 
L 4.703125 0 
L 42.203125 0 
L 42.203125 6.796875 
L 25.203125 6.796875 
C 24 6.796875 22.796875 6.6875 21.59375 6.6875 
L 11.59375 6.6875 
L 11.59375 6.796875 
z
" id="CMSS17-50"/>
     <path d="M 8.90625 69 
L 8.90625 0 
L 33.5 0 
C 49.90625 0 62.5 15.328125 62.5 33.890625 
C 62.5 53.0625 49.90625 69 33.5 69 
z
M 17.09375 5.59375 
L 17.09375 63.390625 
L 31.296875 63.390625 
C 44.703125 63.390625 54.296875 51.171875 54.296875 33.890625 
C 54.296875 17.3125 44.796875 5.59375 31.296875 5.59375 
z
" id="CMSS17-68"/>
     <path d="M 39.09375 21.484375 
C 39.09375 24.796875 38.90625 31.265625 35.703125 36.671875 
C 32.203125 42.390625 26.5 44 22.203125 44 
C 11.796875 44 3 34.125 3 21.296875 
C 3 9.046875 12.09375 -1 23.59375 -1 
C 28.09375 -1 33.59375 0.296875 38.59375 3.890625 
C 38.59375 4.296875 38.40625 6.46875 38.296875 6.578125 
C 38.296875 6.765625 38 9.828125 38 10.234375 
C 33.203125 6.375 27.703125 5.09375 23.703125 5.09375 
C 17.296875 5.09375 10.40625 10.421875 10.09375 21.484375 
z
M 10.90625 27 
C 12.203125 32.59375 16.59375 37.890625 22.203125 37.890625 
C 23.703125 37.890625 30.703125 37.6875 32.5 27 
z
" id="CMSS17-101"/>
     <path d="M 32.203125 40.984375 
C 26.296875 43.796875 21.703125 44 18.703125 44 
C 11.59375 44 3.09375 41.484375 3.09375 31.390625 
C 3.09375 21.296875 14.09375 19.09375 17.09375 18.484375 
C 21.703125 17.59375 26.796875 16.59375 26.796875 11.59375 
C 26.796875 5.296875 19.59375 5.296875 18.296875 5.296875 
C 14.296875 5.296875 8.796875 6.390625 3.796875 9.984375 
L 2.59375 3.296875 
C 8.296875 0 13.796875 -1 18.40625 -1 
C 30.703125 -1 33.796875 6.5 33.796875 12.1875 
C 33.796875 17.09375 31 20.390625 29.09375 21.890625 
C 25.796875 24.484375 24.59375 24.796875 16.40625 26.484375 
C 15 26.6875 10.09375 27.796875 10.09375 32.296875 
C 10.09375 37.984375 16.40625 37.984375 17.796875 37.984375 
C 24.296875 37.984375 28.296875 35.984375 31 34.484375 
z
" id="CMSS17-115"/>
     <path d="M 38.5 39.6875 
C 38.5 40.390625 33.90625 42.390625 32.703125 42.796875 
C 29.40625 44 25.203125 44 24.09375 44 
C 11.09375 44 3.296875 32.6875 3.296875 21.296875 
C 3.296875 9.296875 12 -1 23.703125 -1 
C 30.40625 -1 35.203125 1.1875 39.09375 3.796875 
L 38.5 10.390625 
C 34.203125 7.09375 29.203125 5.296875 23.796875 5.296875 
C 16 5.296875 10.90625 12.09375 10.90625 21.390625 
C 10.90625 28.59375 14.203125 37.6875 24.203125 37.6875 
C 29.703125 37.6875 32.796875 36.59375 37.40625 33.484375 
z
" id="CMSS17-99"/>
     <path d="M 14.90625 21.390625 
C 14.90625 30.84375 21.796875 37.171875 30.59375 37.375 
L 30.59375 44 
C 24.203125 43.890625 18.203125 40.6875 14.59375 35.46875 
L 14.59375 43.484375 
L 7.5 43.484375 
L 7.5 0 
L 14.90625 0 
z
" id="CMSS17-114"/>
     <path d="M 15.296875 66 
L 6.90625 66 
L 6.90625 57.59375 
L 15.296875 57.59375 
z
M 14.796875 43 
L 7.40625 43 
L 7.40625 0 
L 14.796875 0 
z
" id="CMSS17-105"/>
     <path d="M 15.09375 4.296875 
C 18.40625 1.09375 22.90625 -1 27.703125 -1 
C 37 -1 45 8.640625 45 21.59375 
C 45 33.546875 39 44 30.40625 44 
C 25.40625 44 19.40625 42.1875 14.90625 38.59375 
L 14.90625 43.1875 
L 7.5 43.1875 
L 7.5 -20 
L 15.09375 -20 
z
M 15.09375 32.625 
C 15.90625 33.84375 19.296875 37.6875 24.796875 37.6875 
C 31.796875 37.6875 37.40625 30.40625 37.40625 21.59375 
C 37.40625 11.578125 30.59375 5.09375 23.90625 5.09375 
C 21.90625 5.09375 19.796875 5.59375 17.796875 7.3125 
C 15.09375 9.75 15.09375 11.265625 15.09375 12.6875 
z
" id="CMSS17-112"/>
     <path d="M 16.703125 37.1875 
L 29.703125 37.1875 
L 29.703125 43 
L 16.703125 43 
L 16.703125 55 
L 9.59375 55 
L 9.59375 43 
L 1.703125 43 
L 1.703125 37.1875 
L 9.40625 37.1875 
L 9.40625 11.734375 
C 9.40625 6 10.703125 -1 17.296875 -1 
C 22.296875 -1 26.90625 0.390625 31.296875 2.6875 
L 29.703125 8.609375 
C 27.296875 6.5 24.40625 5.296875 21.296875 5.296875 
C 16.90625 5.296875 16.703125 10.921875 16.703125 13.4375 
z
" id="CMSS17-116"/>
     <path d="M 44.203125 21.1875 
C 44.203125 33.984375 34.703125 44 23.5 44 
C 12 44 2.703125 33.6875 2.703125 21.1875 
C 2.703125 8.5 12.296875 -1 23.40625 -1 
C 34.796875 -1 44.203125 8.796875 44.203125 21.1875 
z
M 23.5 5.296875 
C 16.40625 5.296875 10.296875 11.09375 10.296875 21.984375 
C 10.296875 33.59375 17.40625 37.890625 23.40625 37.890625 
C 29.90625 37.890625 36.59375 33.1875 36.59375 21.984375 
C 36.59375 10.6875 30.09375 5.296875 23.5 5.296875 
z
" id="CMSS17-111"/>
     <path d="M 14.796875 69 
L 7.40625 69 
L 7.40625 0 
L 14.796875 0 
z
" id="CMSS17-108"/>
     <path d="M 37.59375 27.953125 
C 37.59375 37.484375 30.90625 44 21.90625 44 
C 17.5 44 12.703125 43.1875 7.203125 39.984375 
L 7.796875 33.328125 
C 10.296875 35.15625 14.59375 38.09375 21.796875 38.09375 
C 26.90625 38.09375 30 34.140625 30 27.84375 
L 30 24 
C 14 23.5 4 18.890625 4 11.109375 
C 4 7.0625 6.5 -1 14.796875 -1 
C 16.296875 -1 24.40625 -0.8125 30.203125 3.5 
L 30.203125 -0.203125 
L 37.59375 -0.203125 
z
M 30 12.875 
C 30 11.109375 30 8.734375 27 6.96875 
C 24.40625 5.296875 21.09375 5.09375 19.703125 5.09375 
C 14.703125 5.09375 11.296875 7.859375 11.296875 11.296875 
C 11.296875 18.203125 26.90625 18.890625 30 19 
z
" id="CMSS17-97"/>
     <path d="M 43 70 
L 35 70 
L 35 61.984375 
L 43 61.984375 
z
M 42.703125 43 
L 35.296875 43 
L 35.296875 0 
L 42.703125 0 
z
M 16.796875 37.1875 
L 27.703125 37.1875 
L 27.703125 43 
L 16.59375 43 
L 16.59375 56.453125 
C 16.59375 61.890625 19 64.59375 22.203125 64.59375 
C 24.09375 64.59375 26 64.09375 27.703125 63.1875 
L 27.703125 69.890625 
C 26.90625 70.09375 24.59375 70.6875 22.203125 70.6875 
C 14.703125 70.6875 9.40625 63.09375 9.40625 53.15625 
L 9.40625 43 
L 2.5 43 
L 2.5 37.1875 
L 9.40625 37.1875 
L 9.40625 0 
L 16.796875 0 
z
" id="CMSS17-12"/>
     <path d="M 40.90625 29.34375 
C 40.90625 35.671875 39.40625 44 28.09375 44 
C 21.703125 44 17.5 40.6875 14.703125 37.28125 
L 14.703125 43.484375 
L 7.40625 43.484375 
L 7.40625 0 
L 15 0 
L 15 24.3125 
C 15 30.65625 17.40625 37.890625 24.203125 37.890625 
C 33 37.890625 33.296875 31.953125 33.296875 28.53125 
L 33.296875 0 
L 40.90625 0 
z
" id="CMSS17-110"/>
     <path d="M 26.09375 6.5 
C 24.90625 6.5 23.703125 6.390625 22.5 6.390625 
L 17.203125 6.390625 
L 17.203125 69 
L 8.796875 69 
L 8.796875 0 
L 46.90625 0 
L 46.90625 6.5 
z
" id="CMSS17-76"/>
     <path d="M 40.59375 69.296875 
C 39.796875 71 39.40625 71 38.59375 71 
C 37.40625 71 37.296875 70.796875 36.59375 69.390625 
L 4.203125 1.6875 
C 4.09375 1.5 3.703125 0.59375 3.703125 0.5 
C 3.703125 0.09375 3.796875 0 5.59375 0 
L 71.5 0 
C 73.296875 0 73.40625 0.09375 73.40625 0.5 
C 73.40625 0.59375 73 1.5 72.90625 1.6875 
z
M 36.09375 63.375 
L 63.796875 5.59375 
L 8.296875 5.59375 
z
" id="CMR17-1"/>
     <path d="M 64.296875 32 
C 65.796875 32 67.296875 32 67.296875 33.6875 
C 67.296875 35.5 65.59375 35.5 63.90625 35.5 
L 8 35.5 
C 6.296875 35.5 4.59375 35.5 4.59375 33.6875 
C 4.59375 32 6.09375 32 7.59375 32 
z
M 63.90625 14.484375 
C 65.59375 14.484375 67.296875 14.484375 67.296875 16.296875 
C 67.296875 18 65.796875 18 64.296875 18 
L 7.59375 18 
C 6.09375 18 4.59375 18 4.59375 16.296875 
C 4.59375 14.484375 6.296875 14.484375 8 14.484375 
z
" id="CMR17-61"/>
    </defs>
    <g transform="translate(120.229349 16.166376)scale(0.12 -0.12)">
     <use transform="scale(0.996264)" xlink:href="#CMSS17-50"/>
     <use transform="translate(46.843624 0)scale(0.996264)" xlink:href="#CMSS17-68"/>
     <use transform="translate(145.615578 0)scale(0.996264)" xlink:href="#CMSS17-68"/>
     <use transform="translate(213.15842 0)scale(0.996264)" xlink:href="#CMSS17-101"/>
     <use transform="translate(254.797242 0)scale(0.996264)" xlink:href="#CMSS17-115"/>
     <use transform="translate(290.710784 0)scale(0.996264)" xlink:href="#CMSS17-99"/>
     <use transform="translate(332.349606 0)scale(0.996264)" xlink:href="#CMSS17-114"/>
     <use transform="translate(364.259378 0)scale(0.996264)" xlink:href="#CMSS17-105"/>
     <use transform="translate(386.440101 0)scale(0.996264)" xlink:href="#CMSS17-112"/>
     <use transform="translate(434.645044 0)scale(0.996264)" xlink:href="#CMSS17-116"/>
     <use transform="translate(468.476611 0)scale(0.996264)" xlink:href="#CMSS17-111"/>
     <use transform="translate(512.717781 0)scale(0.996264)" xlink:href="#CMSS17-114"/>
     <use transform="translate(575.856666 0)scale(0.996264)" xlink:href="#CMSS17-67"/>
     <use transform="translate(635.712438 0)scale(0.996264)" xlink:href="#CMSS17-108"/>
     <use transform="translate(657.893161 0)scale(0.996264)" xlink:href="#CMSS17-97"/>
     <use transform="translate(702.815081 0)scale(0.996264)" xlink:href="#CMSS17-115"/>
     <use transform="translate(738.728623 0)scale(0.996264)" xlink:href="#CMSS17-115"/>
     <use transform="translate(774.642165 0)scale(0.996264)" xlink:href="#CMSS17-105"/>
     <use transform="translate(796.822888 0)scale(0.996264)" xlink:href="#CMSS17-12"/>
     <use transform="translate(846.949626 0)scale(0.996264)" xlink:href="#CMSS17-99"/>
     <use transform="translate(888.588448 0)scale(0.996264)" xlink:href="#CMSS17-97"/>
     <use transform="translate(933.510368 0)scale(0.996264)" xlink:href="#CMSS17-116"/>
     <use transform="translate(967.341935 0)scale(0.996264)" xlink:href="#CMSS17-105"/>
     <use transform="translate(989.522658 0)scale(0.996264)" xlink:href="#CMSS17-111"/>
     <use transform="translate(1036.366281 0)scale(0.996264)" xlink:href="#CMSS17-110"/>
     <use transform="translate(1115.800337 0)scale(0.996264)" xlink:href="#CMSS17-76"/>
     <use transform="translate(1166.487443 0)scale(0.996264)" xlink:href="#CMSS17-105"/>
     <use transform="translate(1188.668166 0)scale(0.996264)" xlink:href="#CMSS17-110"/>
     <use transform="translate(1236.873109 0)scale(0.996264)" xlink:href="#CMSS17-101"/>
     <use transform="translate(1309.741044 0)scale(0.996264)" xlink:href="#CMR17-40"/>
     <use transform="translate(1345.021812 0)scale(0.996264)" xlink:href="#CMR17-1"/>
     <use transform="translate(1421.941401 0)scale(0.996264)" xlink:href="#CMMI12-69"/>
     <use transform="translate(1527.667046 0)scale(0.996264)" xlink:href="#CMR17-61"/>
     <use transform="translate(1627.055843 0)scale(0.996264)" xlink:href="#CMR17-48"/>
     <use transform="translate(1672.746321 0)scale(0.996264)" xlink:href="#CMR17-41"/>
    </g>
   </g>
   <g id="legend_1">
    <g id="patch_7">
     <path d="M 312.283825 58.040733 
L 387.247726 58.040733 
Q 389.247726 58.040733 389.247726 56.040733 
L 389.247726 29.166376 
Q 389.247726 27.166376 387.247726 27.166376 
L 312.283825 27.166376 
Q 310.283825 27.166376 310.283825 29.166376 
L 310.283825 56.040733 
Q 310.283825 58.040733 312.283825 58.040733 
z
" style="fill:#ffffff;opacity:0.8;stroke:#cccccc;stroke-linejoin:miter;"/>
    </g>
    <g id="line2d_16"/>
    <g id="line2d_17">
     <g>
      <use style="fill:#bfa6a6;stroke:#bfa6a6;stroke-linejoin:miter;" x="324.283825" xlink:href="#m1147267e91" y="34.666376"/>
     </g>
    </g>
    <g id="text_17">
     <!-- rocksalt -->
     <defs>
      <path d="M 26.5 26.34375 
L 42 42.734375 
L 32.40625 42.734375 
L 14.90625 24.25 
L 14.90625 69 
L 7.5 69 
L 7.5 0 
L 14.796875 0 
L 14.796875 13.921875 
L 21.5 20.96875 
L 35.59375 0 
L 44.09375 0 
z
" id="CMSS17-107"/>
     </defs>
     <g transform="translate(342.283825 38.166376)scale(0.1 -0.1)">
      <use transform="scale(0.996264)" xlink:href="#CMSS17-114"/>
      <use transform="translate(31.909773 0)scale(0.996264)" xlink:href="#CMSS17-111"/>
      <use transform="translate(81.355835 0)scale(0.996264)" xlink:href="#CMSS17-99"/>
      <use transform="translate(122.994657 0)scale(0.996264)" xlink:href="#CMSS17-107"/>
      <use transform="translate(168.597146 0)scale(0.996264)" xlink:href="#CMSS17-115"/>
      <use transform="translate(204.510688 0)scale(0.996264)" xlink:href="#CMSS17-97"/>
      <use transform="translate(249.432609 0)scale(0.996264)" xlink:href="#CMSS17-108"/>
      <use transform="translate(271.613332 0)scale(0.996264)" xlink:href="#CMSS17-116"/>
     </g>
    </g>
    <g id="line2d_18"/>
    <g id="line2d_19">
     <g>
      <use style="fill:#ff0d0d;stroke:#ff0d0d;stroke-linejoin:miter;" x="324.283825" xlink:href="#m78bb9b319c" y="48.603554"/>
     </g>
    </g>
    <g id="text_18">
     <!-- zincblende -->
     <defs>
      <path d="M 37.5 39.09375 
L 37.5 43 
L 3.90625 43 
L 3.90625 36.984375 
L 16.703125 36.984375 
C 17.90625 36.984375 19.09375 37.09375 20.296875 37.09375 
L 27.296875 37.09375 
L 2.59375 4.09375 
L 2.59375 0 
L 37.796875 0 
L 37.796875 6.1875 
L 24.203125 6.1875 
C 23 6.1875 21.796875 6.09375 20.59375 6.09375 
L 12.90625 6.09375 
z
" id="CMSS17-122"/>
      <path d="M 14.90625 69 
L 7.5 69 
L 7.5 -0.203125 
L 15.09375 -0.203125 
L 15.09375 4.296875 
C 18.90625 0.59375 23.5 -1 27.59375 -1 
C 37.203125 -1 45 8.734375 45 21.59375 
C 45 33.328125 39 44 30.09375 44 
C 23.796875 44 18.203125 41.390625 14.90625 38.6875 
z
M 15.09375 32.734375 
C 17.296875 35.5625 20.40625 37.890625 24.796875 37.890625 
C 30.703125 37.890625 37.40625 33.53125 37.40625 21.59375 
C 37.40625 8.84375 29.40625 5.09375 23.90625 5.09375 
C 21.90625 5.09375 19.796875 5.59375 17.796875 7.3125 
C 15.09375 9.75 15.09375 11.265625 15.09375 12.6875 
z
" id="CMSS17-98"/>
      <path d="M 40.796875 69 
L 33.40625 69 
L 33.40625 38.984375 
C 30.296875 41.59375 25.203125 44 19.59375 44 
C 10.5 44 3.296875 34.046875 3.296875 21.484375 
C 3.296875 8.9375 10.40625 -1 19.296875 -1 
C 26.203125 -1 30.796875 2.6875 33.203125 4.796875 
L 33.203125 -0.203125 
L 40.796875 -0.203125 
z
M 33.203125 13.296875 
C 33.203125 11.875 33.203125 10.359375 30.09375 7.625 
C 28.09375 5.90625 25.703125 5.09375 23.40625 5.09375 
C 18 5.09375 10.90625 9.140625 10.90625 21.390625 
C 10.90625 34.140625 18.90625 37.890625 24.40625 37.890625 
C 28.09375 37.890625 31.09375 36.0625 33.203125 33.03125 
z
" id="CMSS17-100"/>
     </defs>
     <g transform="translate(342.283825 52.103554)scale(0.1 -0.1)">
      <use transform="scale(0.996264)" xlink:href="#CMSS17-122"/>
      <use transform="translate(40.677872 0)scale(0.996264)" xlink:href="#CMSS17-105"/>
      <use transform="translate(62.858595 0)scale(0.996264)" xlink:href="#CMSS17-110"/>
      <use transform="translate(111.063538 0)scale(0.996264)" xlink:href="#CMSS17-99"/>
      <use transform="translate(152.70236 0)scale(0.996264)" xlink:href="#CMSS17-98"/>
      <use transform="translate(200.907303 0)scale(0.996264)" xlink:href="#CMSS17-108"/>
      <use transform="translate(223.088026 0)scale(0.996264)" xlink:href="#CMSS17-101"/>
      <use transform="translate(264.726848 0)scale(0.996264)" xlink:href="#CMSS17-110"/>
      <use transform="translate(312.931791 0)scale(0.996264)" xlink:href="#CMSS17-100"/>
      <use transform="translate(361.136735 0)scale(0.996264)" xlink:href="#CMSS17-101"/>
     </g>
    </g>
   </g>
  </g>
 </g>
 <defs>
  <clipPath id="p8d8e41c002">
   <rect height="217.44" width="334.8" x="59.447726" y="22.166376"/>
  </clipPath>
 </defs>
</svg>
